<svg viewBox="0 0 15 15" xmlns="http://www.w3.org/2000/svg">
  <path
    d="M5.8976 8.32613C5.95231 7.12584 6.42974 6.06831 7.15006 5.31865C7.85647 4.58236 8.80732 4.13232 9.84477 4.13232C10.8812 4.13232 11.832 4.58236 12.5389 5.31865C13.2587 6.06831 13.7362 7.12584 13.7914 8.32484C13.846 9.55817 13.4433 10.7039 12.7369 11.5532C12.0166 12.4171 10.9921 12.9592 9.84477 12.9592C8.69749 12.9592 7.6709 12.4171 6.95108 11.5532C6.2441 10.7039 5.84248 9.55817 5.8976 8.32613Z"/>
  <path
    d="M7.81899 8.43387C7.84701 7.81798 8.09201 7.27534 8.46159 6.89069C8.82404 6.51288 9.31193 6.28198 9.84428 6.28198C10.3761 6.28198 10.8639 6.51288 11.2266 6.89069C11.596 7.27534 11.841 7.81798 11.8693 8.43318C11.8973 9.06601 11.6907 9.65388 11.3282 10.0897C10.9586 10.533 10.433 10.8111 9.84428 10.8111C9.2556 10.8111 8.72882 10.533 8.35945 10.0897C7.99679 9.65388 7.79068 9.06601 7.81899 8.43387Z" />
  <path
    d="M4.59437 9.67847C4.59782 9.91948 4.66025 10.3878 4.75391 10.7536C4.95076 11.5278 5.28464 12.244 5.7492 12.8752C6.226 13.524 6.81305 14.0451 7.49116 14.4151C8.20392 14.8036 8.97619 15.0016 9.77838 15C10.5792 14.9987 11.3515 14.7968 12.0643 14.4053C12.7424 14.0317 13.3289 13.5084 13.8049 12.8593C14.2692 12.2254 14.6026 11.5079 14.7999 10.7337C14.8992 10.3425 14.9618 9.94551 14.987 9.5472C15.0116 9.15477 15.0013 8.76165 14.9561 8.36887C14.8677 7.60347 14.6525 6.88528 14.3213 6.23065C14.0184 5.62912 13.6279 5.10247 13.1636 4.65917L13.1646 4.65818L8.47878 0.229045C8.47454 0.225136 8.47116 0.220907 8.46664 0.217327C8.15917 -0.0732003 7.64221 -0.0722232 7.30411 0.218952C6.96227 0.51338 6.92316 1.0003 7.22738 1.30743L7.22604 1.30905L9.18046 3.26551L3.22363 3.27333H3.2157C2.72334 3.27398 2.25002 3.67166 2.15636 4.17421C2.06005 4.6862 2.39447 5.11086 2.90641 5.1132L2.90562 5.11544L5.92488 5.10827L0.537179 10.1992C0.530304 10.2055 0.522893 10.2119 0.516547 10.2182C0.00830211 10.6973 -0.155991 11.4939 0.164139 11.998C0.489033 12.5108 1.17982 12.5117 1.69336 12.001L4.6338 9.03846C4.6338 9.03846 4.59094 9.43841 4.59437 9.67847ZM12.1502 11.0177C11.5444 11.7776 10.6962 12.2085 9.77838 12.2108C8.85923 12.2128 8.01101 11.7857 7.40519 11.0272C7.10915 10.6575 6.89161 10.2322 6.7575 9.77913C6.626 9.33386 6.57497 8.86127 6.60885 8.38444C6.64082 7.91841 6.75355 7.47384 6.93347 7.07163C7.11021 6.67618 7.35359 6.31894 7.65414 6.0167C8.2431 5.4259 8.99285 5.10602 9.77704 5.10472C10.562 5.10342 11.3113 5.42027 11.9008 6.00918C12.2008 6.31012 12.4439 6.66614 12.6207 7.06082C12.8014 7.46277 12.9133 7.9057 12.9466 8.37311C12.98 8.84925 12.9289 9.32115 12.7974 9.76677C12.663 10.2211 12.4463 10.6464 12.1502 11.0177Z"/>
</svg>