<svg width="15" height="15" viewBox="0 0 15 15" fill="none" xmlns="http://www.w3.org/2000/svg">
  <path
    d="M3.52638e-05 12.2454L1.74141 10.7606C2.07735 11.5998 2.38295 12.3099 3.11598 12.3099C3.81863 12.3099 4.26164 11.9226 4.26164 10.4163V0.172363H6.40007V10.4589C6.40007 13.5794 5.1018 14.9998 3.20762 14.9998C1.49703 14.9998 0.50404 13.7516 0 12.2451"
    fill="black" />
  <path
    d="M7.56055 11.9225L9.30166 10.5022C9.76005 11.5568 10.3558 12.3315 11.4096 12.3315C12.2957 12.3315 12.8607 11.7073 12.8607 10.8465C12.8607 9.81353 12.2802 9.44759 11.3027 8.84521L10.7682 8.52223C9.22539 7.597 8.20195 6.43482 8.20195 3.98147C8.20195 1.72173 9.42397 0 11.3333 0C12.6928 0 13.6703 0.66725 14.3729 2.41039L12.708 3.91684C12.3413 2.99148 11.9443 2.62567 11.3333 2.62567C10.707 2.62567 10.3099 3.18522 10.3099 3.91684C10.3099 4.82066 10.707 5.1866 11.6235 5.74628L12.158 6.069C13.9757 7.16669 14.9991 8.28554 14.9991 10.8034C14.9991 13.5152 13.487 15 11.4555 15C9.46983 15 8.18675 13.6658 7.56055 11.9225Z"
    fill="black" />
</svg>