<svg viewBox="0 0 13 17" xmlns="http://www.w3.org/2000/svg">
  <mask id="mask0_138_3750" style="mask-type:luminance" maskUnits="userSpaceOnUse" x="0" y="0"
    width="13" height="17">
    <path d="M13 0H0V17H13V0Z" fill="white" />
  </mask>
  <g mask="url(#mask0_138_3750)">
    <path
      d="M3.25131 17.0002C5.04498 17.0002 6.50066 15.7309 6.50066 14.1669V11.3335H3.25131C1.45767 11.3335 0.00195312 12.6029 0.00195312 14.1669C0.00195312 15.7309 1.45767 17.0002 3.25131 17.0002Z"
    />
    <path
      d="M0.00195312 8.49983C0.00195312 6.93583 1.45767 5.6665 3.25131 5.6665H6.50066V11.3331H3.25131C1.45767 11.3331 0.00195312 10.0638 0.00195312 8.49983Z"
    />
    <path
      d="M0.00195312 2.83333C0.00195312 1.26933 1.45767 0 3.25131 0H6.50066V5.66667H3.25131C1.45767 5.66667 0.00195312 4.39733 0.00195312 2.83333Z"
    />
    <path
      d="M6.5 0H9.74932C11.543 0 12.9987 1.26933 12.9987 2.83333C12.9987 4.39733 11.543 5.66667 9.74932 5.66667H6.5V0Z"
    />
    <path
      d="M12.9987 8.49983C12.9987 10.0638 11.543 11.3331 9.74932 11.3331C7.95568 11.3331 6.5 10.0638 6.5 8.49983C6.5 6.93583 7.95568 5.6665 9.74932 5.6665C11.543 5.6665 12.9987 6.93583 12.9987 8.49983Z"
    />
  </g>
</svg>