<svg viewBox="0 0 15 15" xmlns="http://www.w3.org/2000/svg">
  <path
    d="M6.85732 0.964286C6.62966 0.342852 6.13928 0 5.63152 0C5.14117 0 4.65086 0.342852 4.44073 0.964286L0.115475 12.75C-0.182219 13.5429 0.115474 14.5071 0.780897 14.85C0.956011 14.9571 1.13112 15 1.30623 15C1.81406 15 2.28686 14.6571 2.5145 14.0571L3.10988 12.4285H8.1881L8.78347 14.0571C8.99365 14.6571 9.48392 15 9.9742 15C10.1493 15 10.342 14.9571 10.5171 14.85C11.165 14.5071 11.4627 13.5429 11.165 12.75L6.85732 0.964286ZM7.155 9.59998H4.14304L5.63152 5.46427L7.155 9.59998Z" />
  <path
    d="M14.8942 2.10004C14.8942 2.95718 14.3339 3.6429 13.6334 3.6429C12.933 3.6429 12.3551 2.95718 12.3551 2.10004C12.3551 1.26433 12.933 0.578613 13.6334 0.578613C14.3339 0.578613 14.8942 1.26433 14.8942 2.10004ZM13.6334 15C12.8629 15 12.25 14.2286 12.25 13.3072V5.9786C12.25 5.05718 12.8629 4.28575 13.6334 4.28575C14.3863 4.28575 14.9993 5.05718 14.9993 5.9786V13.3072C14.9993 14.2286 14.3863 15 13.6334 15Z" />
  <defs>
    <linearGradient id="paint0_linear_138_3763" x1="-1.36701e-06" y1="9.19196" x2="57.6221"
      y2="9.19196" gradientUnits="userSpaceOnUse">
      <stop stop-color="#82E97A" />
      <stop offset="1" stop-color="#21DEBB" />
    </linearGradient>
    <linearGradient id="paint1_linear_138_3763" x1="-0.000670783" y1="9.19202" x2="57.6214"
      y2="9.19202" gradientUnits="userSpaceOnUse">
      <stop stop-color="#82E97A" />
      <stop offset="1" stop-color="#21DEBB" />
    </linearGradient>
  </defs>
</svg>