<svg width="15" height="15" viewBox="0 0 15 15" fill="none" xmlns="http://www.w3.org/2000/svg">
  <path
    d="M0 0L0.807169 8.0099H11.1863L10.838 11.4454L7.49616 12.2447L4.16062 11.4466L3.93761 9.24066H0.931772L1.36159 13.4931L7.49541 15L13.637 13.4931L14.4604 5.36147H3.54601L3.27197 2.649H14.7226H14.7318L15 0H0Z"
    fill="black" />
  <path d="M7.5 0H0L0.807169 8.0099H7.5V5.36146H3.54601L3.27197 2.649H7.5V0Z" fill="black" />
  <path
    d="M7.49988 12.2436L7.49603 12.2447L4.1605 11.4467L3.93749 9.24072H0.931641L1.36147 13.4932L7.49528 15.0001L7.49988 14.9989V12.2436Z"
    fill="black" />
</svg>