<svg viewBox="0 0 16 16" fill="none" xmlns="http://www.w3.org/2000/svg">
  <path
    d="M0.601562 14.9943V0.702659C0.601562 0.605433 0.632724 0.549886 0.705438 0.549886C0.882018 0.549886 1.04822 0.549886 1.28712 0.535993C1.53641 0.5221 1.7961 0.522099 2.07655 0.508219C2.35701 0.494326 2.65823 0.494326 2.98024 0.480433C3.30224 0.466552 3.61386 0.466553 3.92547 0.466553C4.77722 0.466553 5.48352 0.605433 6.06527 0.897098C6.5846 1.13322 7.06244 1.5221 7.45712 2.03599C7.78948 2.48042 8.0492 3.02209 8.21542 3.61931C8.37123 4.20264 8.4543 4.79987 8.4543 5.42492C8.4543 6.61931 8.24659 7.60538 7.83106 8.38324C7.41554 9.16097 6.83389 9.7443 6.15875 10.0776C5.45236 10.4249 4.67335 10.5499 3.82161 10.5499C3.57231 10.5499 3.40611 10.5499 3.30224 10.536C3.19837 10.522 3.05295 10.522 2.85559 10.522V14.9803C2.86598 15.0776 2.81404 15.1609 2.74133 15.1749C2.73095 15.1749 2.72056 15.1749 2.69979 15.1749H0.726209C0.643115 15.1749 0.601562 15.1193 0.601562 14.9943ZM2.86598 3.23042V7.89704C3.0114 7.91097 3.14643 7.92491 3.27108 7.92491H3.82161C4.22671 7.92491 4.63181 7.84157 5.01609 7.67491C5.34855 7.54991 5.63933 7.28598 5.86788 6.93871C6.08601 6.59158 6.18991 6.11932 6.18991 5.50825C6.20024 5.07765 6.11717 4.64708 5.95094 4.27208C5.77439 3.91098 5.5251 3.63321 5.2239 3.48042C4.83954 3.27209 4.42406 3.18875 3.99819 3.20265C3.72812 3.20265 3.48921 3.20265 3.29186 3.21654C3.08411 3.20265 2.93869 3.21654 2.86598 3.23042Z"/>
  <path
    d="M14.936 7.04982C14.6244 6.82756 14.292 6.67482 13.9388 6.57756C13.5545 6.46649 13.1702 6.39696 12.7754 6.39696C12.5677 6.38316 12.3496 6.42482 12.1522 6.49422C12.0172 6.53589 11.9029 6.63316 11.8302 6.77196C11.7782 6.88315 11.7471 7.02196 11.7471 7.14696C11.7471 7.27196 11.7887 7.39695 11.851 7.50815C11.9445 7.66089 12.0691 7.78589 12.2042 7.88315C12.4431 8.04982 12.6924 8.20255 12.9416 8.34148C13.5026 8.59148 14.0427 8.93862 14.5413 9.35528C14.8841 9.64695 15.1645 10.0359 15.3618 10.5081C15.5281 10.9525 15.6111 11.4386 15.6008 11.9386C15.6111 12.5915 15.4657 13.2442 15.1957 13.7859C14.9048 14.3415 14.4997 14.7719 14.0323 15.0219C13.5233 15.3136 12.9001 15.4665 12.1522 15.4665C11.6744 15.4665 11.207 15.4109 10.7396 15.2859C10.376 15.2025 10.0124 15.0498 9.68009 14.8415C9.60734 14.7859 9.55544 14.6886 9.56576 14.5775V12.1609C9.56576 12.1192 9.57618 12.0636 9.60734 12.0359C9.63851 12.0081 9.66967 12.0219 9.70083 12.0498C10.1059 12.3692 10.5318 12.5915 10.9889 12.7303C11.3836 12.8692 11.7991 12.9386 12.2145 12.9386C12.6093 12.9386 12.8897 12.8692 13.0767 12.7442C13.2428 12.6469 13.3572 12.4109 13.3572 12.1609C13.3572 11.9665 13.274 11.7859 13.1079 11.6053C12.9416 11.4248 12.5989 11.2165 12.0899 10.9525C11.5601 10.7025 11.0719 10.3692 10.6149 9.95254C10.2929 9.64695 10.0229 9.24421 9.82548 8.77195C9.65925 8.32755 9.57618 7.84148 9.5866 7.35529C9.5866 6.75816 9.71125 6.18863 9.9397 5.67483C10.1994 5.11923 10.5838 4.67478 11.0304 4.39699C11.5186 4.06366 12.1314 3.91089 12.8689 3.91089C13.2948 3.91089 13.7311 3.95256 14.1569 4.03589C14.4686 4.09145 14.7698 4.20255 15.0502 4.35533C15.0918 4.36922 15.1334 4.42478 15.1541 4.48033C15.1645 4.53589 15.1749 4.59145 15.1749 4.64699V6.91089C15.1749 6.96649 15.1541 7.02196 15.123 7.04982C15.0295 7.07756 14.9776 7.07756 14.936 7.04982Z"/>
</svg>