<svg viewBox="0 0 15 15" xmlns="http://www.w3.org/2000/svg">
  <path
    d="M5.6237 0.00175248L9.24048 0C10.0599 1.25667 10.7508 2.58109 11.3399 3.93993C11.5756 4.44478 11.8137 4.94962 12.0048 5.47035C12.291 6.23306 12.6517 6.97067 12.9253 7.73777C13.4628 9.3523 13.9377 10.9838 14.415 12.6137C14.5931 13.2628 14.8395 13.8938 15 14.5468C14.747 14.6216 14.4926 14.6937 14.2401 14.7707C13.9563 14.8527 13.6551 14.8445 13.3611 14.8674C12.9403 14.9046 12.5177 14.9286 12.0962 14.9614L11.0814 14.3255C11.0351 14.032 11.0424 13.7321 10.9816 13.4398C10.8091 12.5027 10.5385 11.5827 10.2307 10.6751L4.58779 11.3871C4.5457 11.5931 4.50182 11.7996 4.45913 12.0061C4.27035 12.7382 4.31784 13.4966 4.26734 14.2424L2.97836 14.9653C2.8954 15.0231 2.78718 14.9914 2.69279 14.9904C2.37415 14.9614 2.05371 14.9626 1.73628 14.9276C1.41283 14.891 1.06653 14.9434 0.764127 14.8101C0.511027 14.703 0.250099 14.6112 0 14.4981C0.28798 13.254 0.670948 12.0296 1.04429 10.8047C1.50541 9.27641 2.05732 7.77222 2.62546 6.27465C3.42145 4.10986 4.43268 2.01069 5.6237 0.00165602V0.00175248ZM7.19102 4.41256C6.7215 5.65065 6.17797 6.86359 5.67537 8.09079L8.67658 6.58824C8.38439 5.84788 8.08982 5.10865 7.78076 4.37431C7.72193 4.25028 7.66293 4.0902 7.5006 4.05523C7.30765 4.07599 7.25113 4.27324 7.19102 4.41256Z" />
</svg>