<svg width="15" height="15" viewBox="0 0 15 15" fill="none" xmlns="http://www.w3.org/2000/svg">
  <path
    d="M1.20405 9.49356C1.18 9.54017 1.09465 9.55415 1.01689 9.52216C0.937695 9.49158 0.893209 9.42799 0.918891 9.38128C0.942401 9.33325 1.02792 9.31993 1.10695 9.35211C1.18633 9.38269 1.23154 9.44684 1.20405 9.49356ZM1.74117 9.90524C1.68909 9.94679 1.58729 9.92747 1.51821 9.8619C1.44679 9.79652 1.4334 9.7091 1.48621 9.66699C1.53991 9.62553 1.63864 9.64495 1.71024 9.71032C1.78167 9.77655 1.79559 9.86331 1.74117 9.90524ZM2.10965 10.432C2.04275 10.472 1.93335 10.4345 1.86572 10.3511C1.79881 10.2677 1.79881 10.1677 1.86716 10.1275C1.93497 10.0875 2.04275 10.1235 2.11128 10.2063C2.178 10.2911 2.178 10.3912 2.10965 10.432ZM2.73283 11.0421C2.67298 11.0987 2.5455 11.0835 2.45219 11.0061C2.35673 10.9305 2.33014 10.8232 2.39017 10.7665C2.45075 10.7097 2.57896 10.7257 2.67298 10.8024C2.76773 10.8778 2.79666 10.986 2.73283 11.0421ZM3.53824 11.248C3.51184 11.3215 3.38906 11.3549 3.26537 11.3237C3.14187 11.2915 3.06105 11.2055 3.086 11.1312C3.11168 11.0573 3.235 11.0225 3.35959 11.0559C3.48291 11.0878 3.56391 11.1733 3.53824 11.248ZM4.45482 11.3354C4.45789 11.4127 4.35302 11.4768 4.22319 11.4782C4.09264 11.4808 3.98704 11.4181 3.98558 11.342C3.98558 11.2639 4.08812 11.2004 4.21867 11.1985C4.3485 11.1964 4.45482 11.2585 4.45482 11.3354ZM5.35522 11.3057C5.37083 11.3812 5.28064 11.4587 5.15168 11.4794C5.0249 11.4992 4.90754 11.4526 4.89146 11.3778C4.87572 11.3004 4.96758 11.2229 5.09413 11.2028C5.22331 11.1836 5.33884 11.229 5.35522 11.3057Z"
    fill="currentColor" />
  <path fill-rule="evenodd" clip-rule="evenodd"
    d="M5.30508 15C5.30508 15 5.32781 14.2087 5.32781 13.961C5.32781 13.7373 5.31765 12.9984 5.31296 12.2146C2.27519 12.782 1.63418 11.1079 1.63418 11.1079C1.13745 10.0237 0.421763 9.73546 0.421763 9.73546C-0.568965 9.15325 0.496441 9.16526 0.496441 9.16526C1.59295 9.23139 2.17031 10.1319 2.17031 10.1319C3.14422 11.5658 4.72478 11.1513 5.3479 10.9116C5.44596 10.3053 5.72888 9.89154 6.04117 9.65733C3.61581 9.42011 1.06622 8.61579 1.06622 5.02172C1.06622 3.99763 1.49277 3.16085 2.19129 2.504C2.07791 2.26775 1.70415 1.31373 2.29707 0.0217196C2.29707 0.0217196 3.21402 -0.230382 5.30073 0.983191C6.17177 0.775362 7.10582 0.671142 8.03386 0.667568C8.96179 0.671142 9.89671 0.775362 10.7693 0.983191C12.8535 -0.230382 13.7692 0.0217196 13.7692 0.0217196C14.3635 1.31373 13.9896 2.26775 13.8762 2.504C14.5763 3.16085 15 3.99763 15 5.02172C15 8.62442 12.4455 9.41767 10.014 9.64982C10.4057 9.94097 10.7546 10.5117 10.7546 11.3869C10.7546 12.6419 10.742 13.652 10.742 13.961C10.742 14.2106 10.7648 15 10.7648 15H5.30508ZM1.01689 9.52216C1.09465 9.55415 1.18 9.54017 1.20405 9.49356C1.23154 9.44684 1.18633 9.38269 1.10695 9.35211C1.02792 9.31993 0.942401 9.33325 0.918891 9.38128C0.893209 9.42799 0.937695 9.49158 1.01689 9.52216ZM1.51821 9.8619C1.58729 9.92747 1.68909 9.94679 1.74117 9.90524C1.79559 9.86331 1.78167 9.77655 1.71024 9.71032C1.63864 9.64495 1.53991 9.62553 1.48621 9.66699C1.4334 9.7091 1.44679 9.79652 1.51821 9.8619ZM1.86572 10.3511C1.93335 10.4345 2.04275 10.472 2.10965 10.432C2.178 10.3912 2.178 10.2911 2.11128 10.2063C2.04275 10.1235 1.93497 10.0875 1.86716 10.1275C1.79881 10.1677 1.79881 10.2677 1.86572 10.3511ZM2.45219 11.0061C2.5455 11.0835 2.67298 11.0987 2.73283 11.0421C2.79666 10.986 2.76773 10.8778 2.67298 10.8024C2.57896 10.7257 2.45075 10.7097 2.39017 10.7665C2.33014 10.8232 2.35673 10.9305 2.45219 11.0061ZM3.26537 11.3237C3.38906 11.3549 3.51184 11.3215 3.53824 11.248C3.56391 11.1733 3.48291 11.0878 3.35959 11.0559C3.235 11.0225 3.11168 11.0573 3.086 11.1312C3.06105 11.2055 3.14187 11.2915 3.26537 11.3237ZM4.22319 11.4782C4.35302 11.4768 4.45789 11.4127 4.45482 11.3354C4.45482 11.2585 4.3485 11.1964 4.21867 11.1985C4.08812 11.2004 3.98558 11.2639 3.98558 11.342C3.98704 11.4181 4.09264 11.4808 4.22319 11.4782ZM5.15168 11.4794C5.28064 11.4587 5.37083 11.3812 5.35522 11.3057C5.33884 11.229 5.22331 11.1836 5.09413 11.2028C4.96758 11.2229 4.87572 11.3004 4.89146 11.3778C4.90754 11.4526 5.0249 11.4992 5.15168 11.4794Z"
  />
</svg>