<svg width="15" height="15" viewBox="0 0 15 15" fill="none" xmlns="http://www.w3.org/2000/svg">
  <path
    d="M-0.853567 5.32462C-0.853567 5.32462 -1.22844 5.05361 -0.778592 4.69176L0.269488 3.75191C0.269488 3.75191 0.569382 3.43549 0.886466 3.71118L10.5582 11.0545V14.5759C10.5582 14.5759 10.5535 15.1289 9.84587 15.0677L-0.853567 5.32462Z"
  />
  <path
    d="M1.638 7.59448L-0.8549 9.86731C-0.8549 9.86731 -1.11106 10.0584 -0.8549 10.4L0.30252 11.4557C0.30252 11.4557 0.577425 11.7518 0.98353 11.4149L3.62638 9.40525L1.638 7.59448Z"
  />
  <path
    d="M6.01518 7.61323L10.5871 4.11224L10.5574 0.609722C10.5574 0.609722 10.3622 -0.154693 9.71082 0.243177L3.62695 5.79611L6.01518 7.61323Z"
  />
  <path
    d="M9.84523 15.0728C10.1108 15.3453 10.4326 15.256 10.4326 15.256L13.9954 13.4954C14.4515 13.1836 14.3875 12.7967 14.3875 12.7967V2.28288C14.3875 1.82078 13.9157 1.66101 13.9157 1.66101L10.8278 0.168207C10.153 -0.250024 9.71094 0.243396 9.71094 0.243396C9.71094 0.243396 10.2794 -0.167005 10.5575 0.609941V14.5119C10.5575 14.6075 10.5372 14.7015 10.4966 14.7861C10.4154 14.9505 10.2389 15.104 9.81561 15.0398L9.84523 15.0728Z" />
</svg>