<svg width="200" height="196" viewBox="0 0 200 196" fill="none" xmlns="http://www.w3.org/2000/svg">
<path d="M100.001 0C44.7791 0 0 44.7708 0 100.001C0 144.184 28.6533 181.668 68.3867 194.891C73.384 195.817 75.219 192.722 75.219 190.081C75.219 187.696 75.126 179.819 75.083 171.463C47.2631 177.512 41.3927 159.664 41.3927 159.664C36.8437 148.105 30.2894 145.032 30.2894 145.032C21.2163 138.825 30.9733 138.953 30.9733 138.953C41.0151 139.658 46.3026 149.258 46.3026 149.258C55.2217 164.546 69.6965 160.126 75.403 157.571C76.301 151.107 78.892 146.696 81.752 144.199C59.5405 141.67 36.1913 133.095 36.1913 94.778C36.1913 83.86 40.0977 74.939 46.4947 67.9362C45.4564 65.4175 42.0335 55.2465 47.4635 41.4722C47.4635 41.4722 55.8609 38.7845 74.971 51.7226C82.948 49.5069 91.502 48.3958 100.001 48.3577C108.499 48.3958 117.061 49.5069 125.052 51.7226C144.139 38.7845 152.525 41.4722 152.525 41.4722C157.968 55.2465 154.544 65.4175 153.505 67.9362C159.917 74.939 163.797 83.86 163.797 94.778C163.797 133.187 140.403 141.644 118.135 144.119C121.722 147.223 124.918 153.308 124.918 162.638C124.918 176.018 124.802 186.787 124.802 190.081C124.802 192.742 126.602 195.86 131.671 194.878C171.383 181.64 200 144.169 200 100.001C200 44.7708 155.227 0 100.001 0ZM37.4536 142.453C37.2333 142.95 36.4517 143.099 35.7396 142.758C35.0143 142.432 34.6069 141.754 34.8421 141.256C35.0574 140.744 35.8406 140.602 36.5643 140.945C37.2913 141.271 37.7053 141.955 37.4536 142.453ZM42.3725 146.842C41.8956 147.285 40.9633 147.079 40.3307 146.38C39.6766 145.683 39.554 144.751 40.0376 144.302C40.5294 143.86 41.4336 144.067 42.0893 144.764C42.7434 145.47 42.8709 146.395 42.3725 146.842ZM45.7471 152.458C45.1344 152.884 44.1325 152.485 43.5132 151.595C42.9004 150.706 42.9004 149.64 43.5264 149.212C44.1474 148.785 45.1344 149.169 45.762 150.052C46.373 150.956 46.373 152.023 45.7471 152.458ZM51.4542 158.962C50.9061 159.566 49.7386 159.404 48.8841 158.579C48.0098 157.773 47.7663 156.629 48.3161 156.024C48.8709 155.418 50.045 155.589 50.9061 156.407C51.7738 157.211 52.0387 158.364 51.4542 158.962ZM58.8301 161.157C58.5883 161.941 57.4639 162.297 56.3312 161.964C55.2002 161.621 54.46 160.704 54.6885 159.912C54.9237 159.124 56.053 158.753 57.194 159.109C58.3234 159.45 59.0652 160.361 58.8301 161.157ZM67.2242 162.089C67.2523 162.913 66.2919 163.597 65.1029 163.612C63.9073 163.639 62.9402 162.971 62.9269 162.16C62.9269 161.327 63.8659 160.65 65.0615 160.63C66.2505 160.607 67.2242 161.269 67.2242 162.089ZM75.47 161.773C75.613 162.577 74.787 163.404 73.606 163.624C72.445 163.836 71.3702 163.339 71.2229 162.541C71.0788 161.716 71.92 160.89 73.079 160.676C74.262 160.471 75.32 160.955 75.47 161.773Z" fill="#161614"/>
</svg>
