<svg width="210" height="210" viewBox="0 0 210 210" fill="none" xmlns="http://www.w3.org/2000/svg">
<path d="M206.015 65.5041L110.038 1.51913C106.762 -0.49887 103.265 -0.51387 99.962 1.51913L3.985 65.5041C1.525 67.1441 0 70.0751 0 73.0031V136.987C0 139.918 1.525 142.847 3.985 144.486L99.962 208.481C103.236 210.498 106.735 210.516 110.038 208.481L206.015 144.486C208.475 142.847 210 139.918 210 136.989V73.0041C210 70.0751 208.475 67.1441 206.015 65.5041ZM114.025 25.8931L184.687 73.0031L153.163 94.098L114.024 67.9631V25.8961L114.025 25.8931ZM95.976 25.8931V67.9641L56.834 94.097L25.311 73.0041L95.976 25.8931ZM18.047 89.877L40.664 104.995L18.047 120.114V89.877ZM95.976 184.098L25.311 136.987L56.834 115.894L95.976 142.027V184.098ZM105 126.323L73.126 104.995L105 83.667L136.874 104.995L105 126.323ZM114.024 184.098V142.027L153.163 115.894L184.687 136.987L114.024 184.098ZM191.954 120.114L169.336 104.995L191.954 89.879V120.114Z" fill="white"/>
</svg>
