<svg width="1024" height="517" viewBox="0 0 1024 517" fill="none" xmlns="http://www.w3.org/2000/svg">
  <g clip-path="url(#clip0_169_35)">
    <g opacity="0.1">
      <path
        d="M191.405 473.946C191.405 474.337 191.959 474.653 192.642 474.653C193.325 474.653 193.879 474.337 193.879 473.946C193.879 473.556 193.325 473.239 192.642 473.239C191.959 473.239 191.405 473.556 191.405 473.946Z"
        fill="#38415C" />
      <path
        d="M980.684 343.667H968.195H930.034H921.708H917.074H894.438H863.995H855.793H846.658H839.017H796.355H790.846H782.124H767.869H742.374H741.998H705.952H671.863H658.136H649.287H630.459H609.893H598.211H595.608H590.057H551.202H543.57H540.747H537.924H536.461H527.504H521.857H511.438H510.511H505.792H495.372H489.726H479.307H476.484H473.661H445.052H436.809H406.13H399.256H379.837H368.333H318.521H306.132H295.658H274.395H261.716H258.12H234.32H228.234H214.65H203.596H167.333H150.471H145.703H136.798H110.3H91.1914H86.3141H73.7548H66.0666H55.1128H43.3174V354.731H55.1128V362.295H66.0655V370.36H86.3141V372.929H107.468V384.027H124.962V377.042H136.796V389.403H140.676V403.197H152.125V414.788H148.011V416.868H155.247V422.515H179.242V455.854H177.353V458.093H181.478V460.959H186.225V462.036V465.313V468.157H191.953V473.238H192.642H193.331V468.157H196.419L198.285 465.313H210.784V460.959H243.499V458.094H247.624V455.856H245.735V388.557H261.404V436.485H262.949V440.052H265.827V451.866H266.868V440.052H269.21V449.488H270.251V440.052H275.195V436.485H281.439V424.013H293.159V423.136H291.631V420.64H299.373V459.549H298.269V460.551H306.131V466.57H305.115V467.534H312.331V470.995H311.206V471.735H314.792V475.003H318.22V481.509H318.632H319.04H319.361V475.003H320.748V486.672H321.159H321.568H321.889V475.003H322.351H325.318V471.735H328.425V470.995H327.777V467.534H334.994V466.57H333.978V460.551H341.84V459.549H340.736V408.696H364.805V401.637H373.406V439.255H368.333V440.206H373.406V441.909H379.836V444.706H410.908V476.941H418.245V502.669H432.449V516.74H434.448V502.666H438.849V513.909H440.848V502.666H463.315V487.369H467.393V476.939H478.808V438H483.23V428.998L489.724 429.905V431.961H495.37V430.694L505.79 432.151V434.474H511.436V432.94L520.992 434.275V445.512H523.543V465.028H535.812V472.458H542.427V478.7H544.749V489.401H545.349V478.7H547.67V472.458H554.285V465.028H566.65V445.512H569.107V391.621L574.705 408.053H580.571V422.471H577.863V423.093H609.891V431.058H606.287V431.958H604.453V434.413H612.936V437.142H611.823V437.93H630.458V437.142H629.344V434.413H653.886C654.707 436.696 655.957 438.91 657.642 441.016L653.554 442.093C652.849 441.229 651.317 440.631 649.54 440.631C647.094 440.631 645.112 441.764 645.112 443.16C645.112 444.556 647.094 445.689 649.54 445.689C651.985 445.689 653.968 444.556 653.968 443.16C653.968 442.878 653.886 442.608 653.737 442.354L657.848 441.27C660.506 444.513 664.161 447.501 668.726 450.109C669.087 450.314 669.452 450.517 669.821 450.717L666.591 452.685C665.813 452.297 664.796 452.062 663.682 452.062C661.237 452.062 659.254 453.193 659.254 454.591C659.254 455.988 661.237 457.119 663.682 457.119C666.128 457.119 668.11 455.988 668.11 454.591C668.11 453.931 667.668 453.33 666.944 452.881L670.179 450.909C675.668 453.825 682.033 456.027 688.927 457.431L687.141 460.325C686.754 460.262 686.345 460.227 685.922 460.227C683.477 460.227 681.495 461.36 681.495 462.756C681.495 464.152 683.477 465.285 685.922 465.285C688.368 465.285 690.35 464.152 690.35 462.756C690.35 461.7 689.217 460.795 687.606 460.417L689.391 457.525C695.075 458.65 701.11 459.235 707.304 459.235C707.814 459.235 708.322 459.232 708.83 459.223L709.033 462.783C706.887 462.958 705.237 464.012 705.237 465.286C705.237 466.682 707.22 467.815 709.665 467.815C712.11 467.815 714.093 466.682 714.093 465.286C714.093 463.889 712.11 462.757 709.665 462.757C709.618 462.757 709.572 462.759 709.525 462.76L709.323 459.215C711.838 459.163 714.321 459.011 716.762 458.769L714.486 487.956L796.353 478.251V427.114H810.569V453.439H836.154V463.943H837.541V453.439H840.403V472.845H841.791V453.439H845.087V467.428H846.474V453.439H850.811V389.649H863.994V414.788H866.076V419.172H868.158V422.218H882.988V419.172H885.07V414.788H892.616V416.669H896.258V414.788H897.547V419.817H902.751V414.788H904.238L907.475 401.108H919.28V407.629H920.06V401.108H924.484V409.069H925.264V401.108H931.664V399.259H930.034V378.825H943.217L944.76 372.929H955.953V362.295H968.194V354.2H980.683L980.684 343.667ZM669.521 428.635L658.137 428.846V419.481H660.242V418.584H658.137V417.884L671.751 420.747C670.3 423.036 669.509 425.504 669.509 428.075C669.508 428.262 669.513 428.449 669.521 428.635ZM705.832 406.504C701.374 406.602 697.112 407.144 693.175 408.053L687.734 400.484V399.988H692.938V405.636H698.142V399.988H705.461L705.832 406.504ZM719.185 427.714L710.263 427.879C710.236 427.744 710.182 427.615 710.104 427.492L719.395 425.042L719.185 427.714ZM682.01 399.988V400.462C681.677 400.562 681.337 400.654 681.007 400.758L680.277 399.99L682.01 399.988ZM682.01 401.41V401.813L681.712 401.499C681.81 401.467 681.911 401.441 682.01 401.41ZM682.01 402.992V405.636H684.523L688.162 409.467C685.11 410.495 682.332 411.76 679.906 413.219L668.741 407.243C669.079 407.039 669.423 406.837 669.772 406.638C673.127 404.721 676.852 403.094 680.855 401.776L682.01 402.992ZM688.514 409.838L703.946 426.084L680.445 413.507C682.817 412.081 685.532 410.844 688.514 409.838ZM685.642 405.636H687.734V401.224L692.721 408.159C691.449 408.464 690.213 408.808 689.016 409.188L685.642 405.636ZM708.264 399.988V405.636H720.892L719.639 407.667C715.772 406.902 711.623 406.486 707.306 406.486C706.978 406.486 706.65 406.488 706.324 406.493L705.954 399.988H708.264ZM720.834 406.576L720.73 407.906C720.519 407.86 720.317 407.804 720.104 407.76L720.834 406.576ZM719.766 420.275L711.259 425.46L720.085 416.169L719.766 420.275ZM719.732 420.707L719.419 424.727L709.896 427.237C709.842 427.183 709.784 427.131 709.72 427.08L710.333 426.435L719.732 420.707ZM710.005 428.792L718.955 430.674L718.697 433.98L709.638 429.132C709.783 429.027 709.907 428.914 710.005 428.792ZM710.175 428.529C710.232 428.411 710.268 428.287 710.279 428.161L719.164 427.996L718.977 430.381L710.175 428.529ZM671.863 391.13L660.174 378.825H671.863V391.13ZM671.863 392.309V397.909H670.041V399.99H679.158L680.15 401.034C676.024 402.391 672.185 404.068 668.728 406.041C668.368 406.247 668.014 406.456 667.665 406.666L664.274 404.851C664.919 404.412 665.308 403.846 665.308 403.228C665.308 401.83 663.326 400.699 660.881 400.699C659.838 400.699 658.893 400.914 658.136 401.257V395.316H660.241V394.419H658.136V383.234H660.241V382.337H658.136V378.824H659.055L671.863 392.309ZM658.136 407.399H660.241V406.502H658.136V405.199C658.893 405.544 659.838 405.757 660.881 405.757C662.066 405.757 663.143 405.491 663.937 405.058L667.327 406.871C663.561 409.183 660.482 411.768 658.136 414.545V407.399ZM658.136 416.632C660.529 413.276 663.976 410.167 668.404 407.447L679.572 413.424C676.279 415.456 673.662 417.848 671.922 420.484L658.136 417.585V416.632ZM680.11 413.712L704.69 426.866L704.893 427.08C704.784 427.167 704.688 427.259 704.607 427.357L672.616 420.63C674.32 418.047 676.885 415.702 680.11 413.712ZM689.367 409.558C690.541 409.185 691.753 408.848 693 408.549L705.951 426.561C705.837 426.594 705.728 426.632 705.623 426.672L689.367 409.558ZM693.456 408.442C697.312 407.551 701.488 407.021 705.857 406.924L706.965 426.385C706.773 426.398 706.587 426.42 706.408 426.452L693.456 408.442ZM706.348 406.915C706.667 406.91 706.986 406.908 707.306 406.908C711.536 406.908 715.603 407.316 719.393 408.066L708.06 426.43C707.866 426.4 707.663 426.383 707.455 426.377L706.348 406.915ZM719.857 408.159C720.141 408.218 720.413 408.291 720.694 408.353L720.186 414.885L708.988 426.673C708.843 426.616 708.687 426.567 708.524 426.524L719.857 408.159ZM709.302 429.336L718.668 434.348L718.024 442.61L708.661 429.589C708.894 429.52 709.11 429.435 709.302 429.336ZM672.444 420.893L704.437 427.622C704.38 427.74 704.344 427.862 704.333 427.99L670.258 428.622C670.25 428.441 670.246 428.258 670.246 428.075C670.246 425.554 671.022 423.136 672.444 420.893ZM704.349 428.271C704.376 428.405 704.43 428.535 704.508 428.658L673.558 436.819C671.62 434.389 670.467 431.715 670.277 428.903L704.349 428.271ZM704.716 428.913C704.824 429.021 704.953 429.123 705.098 429.216L681.799 443.417C678.478 441.615 675.742 439.467 673.766 437.074L704.716 428.913ZM705.457 429.407C705.65 429.494 705.861 429.569 706.088 429.626L694.755 447.991C690.041 447.018 685.769 445.515 682.159 443.608L705.457 429.407ZM706.552 429.72C706.747 429.748 706.949 429.767 707.157 429.773L708.265 449.235C707.947 449.239 707.627 449.242 707.307 449.242C703.077 449.242 699.01 448.833 695.219 448.085L706.552 429.72ZM707.649 429.763C707.84 429.75 708.027 429.728 708.206 429.696L717.972 443.278L717.572 448.401C714.753 448.866 711.805 449.158 708.756 449.224L707.649 429.763ZM655.396 434.41H663.575V431.956H661.741V431.055H658.136V429.126L669.539 428.915C669.733 431.785 670.911 434.514 672.888 436.993L658.984 440.658C657.39 438.665 656.196 436.57 655.396 434.41ZM669.772 449.512C665.332 446.976 661.776 444.07 659.191 440.916L673.096 437.249C675.112 439.692 677.906 441.886 681.295 443.724L670.832 450.101C670.475 449.907 670.121 449.711 669.772 449.512ZM671.19 450.293L681.654 443.915C685.338 445.862 689.698 447.396 694.509 448.389L689.419 456.636C682.717 455.27 676.528 453.129 671.19 450.293ZM707.306 458.391C701.282 458.391 695.413 457.821 689.884 456.729L694.974 448.482C698.84 449.246 702.99 449.663 707.306 449.663C707.634 449.663 707.961 449.661 708.288 449.656L708.784 458.38C708.293 458.388 707.8 458.391 707.306 458.391ZM709.277 458.371L708.78 449.645C711.807 449.578 714.733 449.292 717.538 448.842L716.832 457.903C714.354 458.158 711.832 458.318 709.277 458.371Z"
        fill="#38415C" />
    </g>
    <g opacity="0.3">
      <path
        d="M179.241 281.184H245.733V123.127H247.623V118.609H243.499V112.827H210.784V104.041H198.285L196.418 98.3037H193.33V88.0531H192.641H191.953V98.3037H186.223V104.041V110.654V112.827H181.476V118.609H177.352V123.127H179.241V281.184Z"
        fill="url(#paint0_linear_169_35)" />
      <path
        d="M193.878 86.6276C193.878 85.8394 193.324 85.201 192.64 85.201C191.957 85.201 191.403 85.8394 191.403 86.6276C191.403 87.4147 191.957 88.0531 192.64 88.0531C193.324 88.0531 193.878 87.4147 193.878 86.6276Z"
        fill="url(#paint1_linear_169_35)" />
      <path
        d="M796.353 290.437V77.9452L714.486 58.3631L723.457 290.437H483.229V159.15H478.808V80.5884H467.392V59.5454H463.314V28.6814H440.846V5.99823H438.847V28.6814H434.446V0.287033H432.446V28.6814H418.242V80.5884H410.905V159.15H404.616V290.437H340.733V115.675H341.836V113.654H333.974V101.511H334.991V99.5663H327.774V92.5854H328.422V91.0927H325.314V84.4977H322.349H321.887V60.9556H321.565H321.157H320.745V84.4977H319.359V71.3738H319.037H318.628H318.217V84.4977H314.788V91.0927H311.202V92.5854H312.329V99.5663H305.113V101.511H306.128V113.654H298.266V115.675H299.37V290.437H86.3125V314.272H955.953V290.437H796.353Z"
        fill="url(#paint2_linear_169_35)" />
    </g>
    <path
      d="M940.316 311.892V290.436H914.143L904.237 205.982H902.75V195.837H897.546V205.982H896.257V202.187H892.614V205.982H885.068V197.137H882.987V190.99H868.156V197.137H866.074V205.982H863.992V256.706H850.81V128.006H846.473V99.7799H845.085V128.006H841.789V88.8519H840.402V128.006H837.539V106.812H836.152V128.006H810.567V219.359H782.121V278.54H755.554L734.459 233.734C738.015 231.374 741.358 228.536 744.427 225.246L748.754 230.565C747.825 231.501 747.237 232.874 747.237 234.407C747.237 237.225 749.219 239.51 751.665 239.51C754.11 239.51 756.093 237.225 756.093 234.407C756.093 231.589 754.11 229.305 751.665 229.305C750.727 229.305 749.859 229.641 749.143 230.215L744.786 224.858C745.154 224.455 745.52 224.047 745.88 223.632C750.445 218.37 754.101 212.341 756.758 205.797L761.576 208.36C761.488 208.76 761.442 209.178 761.442 209.61C761.442 212.427 763.424 214.712 765.87 214.712C768.315 214.712 770.298 212.427 770.298 209.61C770.298 206.792 768.315 204.507 765.87 204.507C763.973 204.507 762.355 205.882 761.725 207.815L756.965 205.283C759.9 197.88 761.562 189.834 761.823 181.502L767.009 181.697C767.073 184.451 769.029 186.661 771.434 186.661C773.879 186.661 775.862 184.376 775.862 181.559C775.862 178.741 773.879 176.456 771.434 176.456C769.114 176.456 767.212 178.513 767.023 181.13L761.837 180.936C761.851 180.35 761.859 179.764 761.859 179.176C761.859 171.739 760.745 164.499 758.61 157.71L762.942 155.871C763.622 157.68 765.186 158.946 767.005 158.946C769.451 158.946 771.433 156.662 771.433 153.844C771.433 151.026 769.451 148.742 767.005 148.742C764.56 148.742 762.578 151.026 762.578 153.844C762.578 154.363 762.645 154.866 762.771 155.339L758.441 157.176C755.973 149.549 752.21 142.501 747.281 136.395L750.671 132.735C751.465 133.609 752.541 134.147 753.727 134.147C756.172 134.147 758.155 131.864 758.155 129.045C758.155 126.227 756.172 123.943 753.727 123.943C751.282 123.943 749.299 126.227 749.299 129.045C749.299 130.292 749.688 131.435 750.334 132.321L746.944 135.981C746.595 135.556 746.241 135.135 745.88 134.72C740.748 128.804 734.772 124.214 728.266 121.095L730.131 115.863C730.554 116.018 731.005 116.103 731.472 116.103C733.917 116.103 735.899 113.818 735.899 111.001C735.899 108.183 733.917 105.898 731.472 105.898C729.026 105.898 727.044 108.183 727.044 111.001C727.044 113.08 728.123 114.866 729.671 115.662L727.812 120.881C721.99 118.162 715.754 116.615 709.321 116.347L709.523 109.196C709.57 109.198 709.616 109.2 709.663 109.2C712.109 109.2 714.091 106.915 714.091 104.098C714.091 101.28 712.109 98.9952 709.663 98.9952C707.218 98.9952 705.236 101.28 705.236 104.098C705.236 106.669 706.885 108.794 709.032 109.147L708.829 116.328C708.321 116.312 707.812 116.303 707.302 116.303C701.109 116.303 695.073 117.485 689.389 119.755L687.604 113.919C689.215 113.155 690.349 111.331 690.349 109.199C690.349 106.381 688.366 104.096 685.921 104.096C683.476 104.096 681.493 106.381 681.493 109.199C681.493 112.017 683.476 114.301 685.921 114.301C686.344 114.301 686.752 114.231 687.139 114.104L688.925 119.943C682.032 122.776 675.667 127.218 670.178 133.102L666.942 129.123C667.666 128.214 668.108 127.004 668.108 125.674C668.108 122.856 666.126 120.572 663.681 120.572C661.235 120.572 659.253 122.855 659.253 125.674C659.253 128.492 661.235 130.776 663.681 130.776C664.795 130.776 665.812 130.302 666.59 129.519L669.82 133.491C669.451 133.894 669.085 134.303 668.725 134.719C664.16 139.979 660.504 146.009 657.847 152.553L653.736 150.365C653.885 149.854 653.966 149.308 653.966 148.74C653.966 145.923 651.984 143.638 649.538 143.638C647.093 143.638 645.11 145.923 645.11 148.74C645.11 151.558 647.093 153.843 649.538 153.843C651.316 153.843 652.848 152.636 653.552 150.893L657.64 153.068C654.706 160.47 653.043 168.517 652.782 176.848L647.505 176.651C647.439 173.898 645.484 171.69 643.08 171.69C640.635 171.69 638.652 173.975 638.652 176.793C638.652 179.61 640.635 181.895 643.08 181.895C645.401 181.895 647.304 179.837 647.491 177.219L652.768 177.416C652.755 178.001 652.746 178.587 652.746 179.175C652.746 186.611 653.861 193.852 655.996 200.64L651.663 202.479C650.983 200.67 649.419 199.404 647.599 199.404C645.153 199.404 643.171 201.688 643.171 204.506C643.171 207.324 645.153 209.608 647.599 209.608C650.044 209.608 652.027 207.324 652.027 204.506C652.027 203.987 651.959 203.484 651.833 203.012L656.163 201.175C658.63 208.802 662.394 215.849 667.323 221.956L663.934 225.616C663.139 224.742 662.063 224.204 660.877 224.204C658.432 224.204 656.449 226.487 656.449 229.306C656.449 232.124 658.432 234.408 660.877 234.408C663.322 234.408 665.305 232.124 665.305 229.306C665.305 228.059 664.916 226.917 664.271 226.03L667.661 222.37C668.01 222.795 668.364 223.216 668.725 223.632C672.182 227.614 676.021 230.997 680.147 233.734L659.051 278.54H641.966V248.164H635.002V190.483H637.71V189.229H577.863V190.483H580.572V219.572H574.705L569.107 252.726V143.997H566.651V104.62H554.286V89.6284H547.671V77.0366H545.349V55.4497H544.749V77.0366H542.428V89.6296H535.813V104.621H523.543V143.998H520.992V215.486H501.968V278.54H438.849V156.621H443.922V154.702H438.849V151.267H432.42V145.625H379.833V151.267H373.403V154.702H368.33V156.621H373.403V232.517H364.802V218.276H311.739V235.665H300.17V268.047H281.437V162.209H275.192V155.012H270.249V135.974H269.207V155.012H266.865V131.176H265.825V155.012H262.946V162.209H261.401V268.047H222.634V205.982H224.455V201.785H212.487V190.392H206.763V201.785H201.559V190.392H196.355V201.785H186.232V190.392H155.245V201.785H148.01V205.982H152.123V229.369H140.675V282.138H124.96V268.047H107.466V298.779H86.3126V311.892H55.1113V349.474H968.194V311.892H940.316ZM733.756 232.237L726.45 216.718C728.792 215.126 730.973 213.251 732.956 211.135L743.421 224.004C740.445 227.194 737.203 229.947 733.756 232.237ZM706.406 182.446C706.585 182.511 706.772 182.557 706.963 182.583L705.855 221.846C701.487 221.652 697.311 220.582 693.455 218.785L706.406 182.446ZM693 218.571C691.753 217.966 690.54 217.286 689.367 216.534L705.623 182.006C705.727 182.088 705.837 182.163 705.95 182.23L693 218.571ZM707.455 182.602C707.663 182.59 707.865 182.553 708.06 182.494L719.392 219.546C715.603 221.058 711.535 221.88 707.305 221.88C706.985 221.88 706.665 221.876 706.347 221.866L707.455 182.602ZM708.523 182.306C708.685 182.221 708.841 182.12 708.987 182.006L725.243 216.534C723.525 217.634 721.725 218.58 719.855 219.359L708.523 182.306ZM711.259 184.451L732.453 210.515C730.514 212.581 728.384 214.412 726.098 215.97L711.259 184.451ZM710.331 182.483L709.719 181.181C709.782 181.08 709.841 180.973 709.895 180.865L740.844 197.328C738.868 202.156 736.132 206.492 732.812 210.128L710.331 182.483ZM710.103 180.351C710.182 180.104 710.235 179.842 710.262 179.57L744.335 180.847C744.145 186.522 742.99 191.916 741.054 196.817L710.103 180.351ZM710.278 179.004C710.267 178.748 710.231 178.499 710.173 178.261L742.167 164.687C743.589 169.213 744.365 174.093 744.365 179.176C744.365 179.546 744.361 179.913 744.352 180.281L710.278 179.004ZM710.004 177.728C709.905 177.484 709.782 177.255 709.638 177.045L734.502 150.198C737.727 154.215 740.291 158.943 741.996 164.155L710.004 177.728ZM709.302 176.631C709.109 176.43 708.893 176.259 708.66 176.12L721.61 139.78C726.383 142.09 730.652 145.519 734.166 149.782L709.302 176.631ZM708.204 175.905C708.025 175.84 707.839 175.794 707.647 175.768L708.755 136.506C713.122 136.7 717.299 137.77 721.156 139.567L708.204 175.905ZM707.156 175.75C706.948 175.761 706.745 175.798 706.55 175.856L695.218 138.804C699.008 137.292 703.074 136.47 707.305 136.47C707.626 136.47 707.945 136.474 708.264 136.484L707.156 175.75ZM706.088 176.046C705.861 176.163 705.649 176.312 705.457 176.488L682.158 147.837C685.767 143.989 690.039 140.955 694.754 138.994L706.088 176.046ZM705.097 176.874C704.951 177.06 704.823 177.266 704.715 177.485L673.766 161.021C675.741 156.193 678.479 151.857 681.799 148.221L705.097 176.874ZM704.508 178C704.429 178.249 704.376 178.51 704.348 178.781L670.275 177.504C670.466 171.83 671.62 166.436 673.556 161.534L704.508 178ZM704.332 179.349C704.344 179.605 704.38 179.852 704.437 180.091L672.443 193.664C671.022 189.138 670.246 184.26 670.246 179.175C670.246 178.806 670.25 178.438 670.258 178.071L704.332 179.349ZM704.606 180.623C704.686 180.821 704.781 181.008 704.892 181.182L704.689 181.613L680.109 208.153C676.883 204.137 674.319 199.409 672.614 194.196L704.606 180.623ZM703.944 183.192L688.513 215.969C685.531 213.939 682.815 211.443 680.444 208.568L703.944 183.192ZM689.014 217.281C690.212 218.047 691.447 218.742 692.719 219.356L686.902 235.679C685.128 234.829 683.396 233.866 681.71 232.794L689.014 217.281ZM693.175 219.572C697.11 221.407 701.373 222.498 705.832 222.696L705.335 240.301C699.081 240.041 693.018 238.536 687.359 235.894L693.175 219.572ZM706.323 222.717C706.65 222.726 706.976 222.732 707.305 222.732C711.621 222.732 715.771 221.892 719.637 220.349L724.726 236.988C719.198 239.195 713.328 240.344 707.305 240.344C706.812 240.344 706.318 240.336 705.826 240.319L706.323 222.717ZM720.102 220.16C722.009 219.367 723.845 218.402 725.596 217.281L732.9 232.795C730.425 234.368 727.849 235.708 725.191 236.8L720.102 220.16ZM744.839 222.427C744.49 222.829 744.136 223.224 743.779 223.615L733.317 210.748C736.706 207.038 739.5 202.612 741.516 197.686L755.421 205.083C752.835 211.447 749.279 217.311 744.839 222.427ZM755.627 204.569L741.723 197.172C743.7 192.17 744.878 186.666 745.071 180.873L760.35 181.445C760.095 189.547 758.479 197.372 755.627 204.569ZM760.386 179.176C760.386 179.745 760.379 180.313 760.366 180.88L745.091 180.308C745.099 179.931 745.103 179.554 745.103 179.176C745.103 173.988 744.31 169.011 742.86 164.393L757.227 158.298C759.303 164.902 760.386 171.943 760.386 179.176ZM746.207 137.559C750.999 143.497 754.658 150.349 757.057 157.765L742.688 163.862C740.949 158.543 738.331 153.717 735.039 149.617L746.207 137.559ZM744.839 135.923C745.188 136.326 745.531 136.733 745.87 137.145L734.704 149.201C731.118 144.85 726.762 141.35 721.891 138.994L727.708 122.671C734.035 125.706 739.847 130.171 744.839 135.923ZM709.275 118.049C715.529 118.309 721.592 119.814 727.252 122.456L721.434 138.779C717.499 136.944 713.236 135.854 708.778 135.655L709.275 118.049ZM707.305 118.009C707.799 118.009 708.292 118.017 708.784 118.032L708.287 135.634C707.961 135.625 707.634 135.62 707.305 135.62C702.989 135.62 698.84 136.46 694.973 138.003L689.884 121.363C695.412 119.157 701.282 118.009 707.305 118.009ZM689.419 121.551L694.508 138.191C689.697 140.193 685.337 143.288 681.654 147.216L671.19 134.347C676.527 128.627 682.717 124.307 689.419 121.551ZM669.771 135.923C670.121 135.521 670.475 135.126 670.831 134.735L681.295 147.602C677.905 151.312 675.112 155.738 673.095 160.666L659.19 153.268C661.775 146.904 665.331 141.04 669.771 135.923ZM658.984 153.783L672.887 161.179C670.91 166.181 669.733 171.687 669.539 177.478L654.26 176.906C654.515 168.805 656.132 160.981 658.984 153.783ZM654.224 179.176C654.224 178.607 654.231 178.039 654.245 177.472L669.52 178.045C669.511 178.42 669.507 178.797 669.507 179.176C669.507 184.363 670.3 189.341 671.75 193.959L657.383 200.055C655.307 193.449 654.224 186.408 654.224 179.176ZM668.403 220.792C663.611 214.855 659.952 208.002 657.552 200.586L671.921 194.489C673.661 199.809 676.278 204.635 679.57 208.734L668.403 220.792ZM669.771 222.427C669.422 222.024 669.079 221.617 668.74 221.205L679.906 209.149C682.331 212.092 685.11 214.643 688.161 216.718L680.855 232.237C676.851 229.578 673.126 226.294 669.771 222.427ZM681.007 234.29C682.739 235.393 684.52 236.38 686.342 237.255L684.477 242.487C684.054 242.332 683.604 242.248 683.137 242.248C680.691 242.248 678.709 244.533 678.709 247.351C678.709 250.169 680.691 252.453 683.137 252.453C685.582 252.453 687.564 250.169 687.564 247.351C687.564 245.272 686.485 243.485 684.937 242.69L686.796 237.471C692.618 240.189 698.854 241.736 705.287 242.004L705.135 247.354C702.738 247.417 700.81 249.675 700.81 252.453C700.81 255.271 702.792 257.555 705.238 257.555C707.683 257.555 709.665 255.271 709.665 252.453C709.665 249.786 707.89 247.6 705.627 247.372L705.778 242.021C706.286 242.037 706.795 242.045 707.305 242.045C713.498 242.045 719.534 240.864 725.218 238.594L726.809 243.795C725.303 244.61 724.258 246.373 724.258 248.416C724.258 251.234 726.241 253.519 728.686 253.519C731.132 253.519 733.114 251.234 733.114 248.416C733.114 245.598 731.132 243.314 728.686 243.314C728.19 243.314 727.712 243.41 727.266 243.584L725.682 238.406C728.413 237.283 731.06 235.908 733.603 234.292L754.437 278.542H660.172L681.007 234.29Z"
      fill="url(#paint3_linear_169_35)" />
    <path
      d="M836.449 154.918C836.449 154.131 835.984 153.492 835.41 153.492C834.837 153.492 834.372 154.131 834.372 154.918C834.372 155.706 834.837 156.343 835.41 156.343C835.984 156.344 836.449 155.706 836.449 154.918Z"
      fill="url(#paint4_linear_169_35)" />
    <path
      d="M949.662 328.224L943.217 278.54H930.034V237.312H931.664V233.582H925.264V217.524H924.483V233.582H920.06V220.427H919.28V233.582H892.616V237.312H894.438V320.964H863.995V283.494H846.659V191.418H848.244V186.901H844.782V181.117H840.797V178.944V172.332V166.595H835.989V156.344H835.41H834.832V166.595H832.24L830.673 172.332H820.181V181.117H792.721V186.901H789.258V191.418H790.845V251.326H767.868V310.189L742.373 297.171V240.038H746.487V235.841H739.25V224.447H708.264V235.841H698.141V224.447H692.937V235.841H687.734V224.447H682.01V235.841H670.041V240.038H671.862V319.228H660.24V318.397H658.136V295.831H660.24V294.021H658.136V271.453H660.24V269.644H658.136V247.077H660.24V245.268H658.136V222.701H660.24V220.89H658.136V198.324H660.24V196.514H658.136V173.159H661.741V171.343H663.574V166.392H629.345V160.886H630.459V159.296H611.824V160.886H612.937V166.392H604.454V171.343H606.288V173.159H609.893V196.514H607.788V198.324H609.893V220.89H607.788V222.701H609.893V245.268H607.788V247.077H609.893V269.644H607.788V271.453H609.893V294.021H607.788V295.831H609.893V318.397H607.788V320.207H609.893V338.649H598.21V267.388H551.202V319.228H543.57V157.74H537.923V161.897L527.504 164.834V162.135H521.856V166.426L511.437 169.362V166.267H505.791V170.954L495.37 173.891V171.337H489.724V175.483L479.305 178.42V176.219H473.659V334.803H465.714V250.258H436.291V302.248H406.127V257.913H402.411V243.353H404.616V241.891H394.856V237.312H393.814V241.891H390.692V218.391H389.912V241.891H385.845V243.353H388.238V257.913H368.33V291.733H348.95L338.827 334.803H318.518V194.178H291.629V189.14H293.157V187.373H272.791V189.14H274.392V194.178V202.279V298.59H261.713V262.201H266.22V258.906H234.317V236.923H228.231V232.406H214.647V236.923H203.593V315.419H167.33V257.201H136.795V303.185H110.297V332.606H91.1915V295.619H66.0656V327.153H43.3164V349.475H66.0656H73.7538H86.3131H91.1915H110.297H136.795H145.7H150.468H167.33H203.593H214.647H228.231H234.317H258.117H261.713H274.392H295.655H306.129H318.518H368.33H379.834H399.253H406.127H436.806H445.049H473.659H476.482H479.305H489.724H495.37H505.791H510.51H511.437H521.856H527.504H536.461H537.923H540.746H543.57H551.202H590.057H595.607H598.21H609.893H630.459H649.287H658.136H671.862H705.951H741.997H742.373H767.868H782.123H790.845H796.354H839.018H846.659H855.794H863.995H894.438H917.074H921.708H930.034H980.683V328.224H949.662Z"
      fill="url(#paint5_linear_169_35)" />
  </g>
  <defs>
    <linearGradient id="paint0_linear_169_35" x1="212.487" y1="281.184" x2="212.487" y2="88.0532"
      gradientUnits="userSpaceOnUse">
      <stop stop-color="#403E40" />
      <stop offset="0.1275" stop-color="#4E4D4E" />
      <stop offset="0.3124" stop-color="#5A5A5A" />
      <stop offset="0.5479" stop-color="#626262" />
      <stop offset="1" stop-color="#646464" />
    </linearGradient>
    <linearGradient id="paint1_linear_169_35" x1="192.641" y1="88.0532" x2="192.641" y2="85.2011"
      gradientUnits="userSpaceOnUse">
      <stop stop-color="#403E40" />
      <stop offset="0.1275" stop-color="#4E4D4E" />
      <stop offset="0.3124" stop-color="#5A5A5A" />
      <stop offset="0.5479" stop-color="#626262" />
      <stop offset="1" stop-color="#646464" />
    </linearGradient>
    <linearGradient id="paint2_linear_169_35" x1="521.133" y1="314.271" x2="521.133" y2="0.286565"
      gradientUnits="userSpaceOnUse">
      <stop stop-color="#403E40" />
      <stop offset="0.1275" stop-color="#4E4D4E" />
      <stop offset="0.3124" stop-color="#5A5A5A" />
      <stop offset="0.5479" stop-color="#626262" />
      <stop offset="1" stop-color="#646464" />
    </linearGradient>
    <linearGradient id="paint3_linear_169_35" x1="511.653" y1="349.474" x2="511.653" y2="55.4487"
      gradientUnits="userSpaceOnUse">
      <stop offset="0.0815" stop-color="#403E40" />
      <stop offset="0.4715" stop-color="#444244" />
      <stop offset="0.8768" stop-color="#504F50" />
      <stop offset="1" stop-color="#555455" />
    </linearGradient>
    <linearGradient id="paint4_linear_169_35" x1="835.41" y1="153.492" x2="835.41" y2="156.344"
      gradientUnits="userSpaceOnUse">
      <stop stop-color="#403E40" />
      <stop offset="1" stop-color="#161F21" />
    </linearGradient>
    <linearGradient id="paint5_linear_169_35" x1="512" y1="156.344" x2="512" y2="349.474"
      gradientUnits="userSpaceOnUse">
      <stop stop-color="#403E40" />
      <stop offset="1" stop-color="#161F21" />
    </linearGradient>
    <clipPath id="clip0_169_35">
      <rect width="1024" height="517" fill="white" />
    </clipPath>
  </defs>
</svg>