<svg width="1320" height="174" viewBox="0 0 1320 174" fill="none" xmlns="http://www.w3.org/2000/svg">
  <g opacity="0.1">
    <path
      d="M209.163 130.946C209.163 131.337 209.942 131.653 210.903 131.653C211.863 131.653 212.642 131.337 212.642 130.946C212.642 130.556 211.863 130.239 210.903 130.239C209.942 130.239 209.163 130.556 209.163 130.946Z"
      fill="#38415C" />
    <path
      d="M1319.09 0.667053H1301.52H1247.86H1236.15H1229.64H1197.8H1154.99H1143.46H1130.61H1119.87H1059.87H1052.13H1039.86H1019.82H983.963H983.434H932.745H884.807H865.504H853.059H826.582H797.661H781.234H777.573H769.767H715.128H704.395H700.425H696.455H694.399H681.802H673.862H659.21H657.906H651.269H636.617H628.677H614.025H610.055H606.085H565.854H554.262H511.12H501.453H474.145H457.968H387.921H370.498H355.768H325.868H308.038H302.981H269.512H260.955H241.852H226.307H175.312H151.6H144.895H132.373H95.1097H68.2379H61.3792H43.7176H32.9061H17.5024H0.915039V11.7307H17.5024V19.2945H32.9046V27.3598H61.3792V29.9287H91.1267V41.0266H115.728V34.0422H132.37V46.4027H137.826V60.1969H153.925V71.788H148.141V73.8684H158.316V79.5147H192.059V112.854H189.402V115.093H195.203V117.959H201.879V119.036V122.313V125.157H209.934V130.238H210.903H211.872V125.157H216.214L218.839 122.313H236.415V117.959H282.421V115.094H288.221V112.856H285.564V45.5566H307.599V93.4847H309.772V97.0518H313.82V108.866H315.283V97.0518H318.576V106.488H320.041V97.0518H326.993V93.4847H335.774V81.0133H352.255V80.1365H350.106V77.6396H360.993V116.549H359.44V117.551H370.497V123.57H369.068V124.534H379.216V127.995H377.633V128.735H382.676V132.003H387.497V138.509H388.076H388.649H389.102V132.003H391.051V143.672H391.63H392.205H392.657V132.003H393.306H397.478V128.735H401.847V127.995H400.937V124.534H411.085V123.57H409.656V117.551H420.712V116.549H419.16V65.6957H453.007V58.6369H465.102V96.2553H457.968V97.2064H465.102V98.9091H474.144V101.706H517.839V133.941H528.157V159.669H548.131V173.74H550.942V159.666H557.131V170.909H559.942V159.666H591.537V144.369H597.271V133.939H613.324V94.9998H619.542V85.9976L628.674 86.905V88.9606H636.615V87.6944L651.267 89.1506V91.474H659.207V89.9399L672.645 91.2745V102.512H676.232V122.028H693.486V129.458H702.788V135.7H706.053V146.401H706.897V135.7H710.161V129.458H719.463V122.028H736.852V102.512H740.306V48.6211L748.179 65.0526H756.428V79.471H752.619V80.0928H797.66V88.0578H792.591V88.9582H790.012V91.4126H801.941V94.1419H800.376V94.9301H826.581V94.1419H825.015V91.4126H859.527C860.681 93.6959 862.44 95.9096 864.808 98.0159L859.06 99.0932C858.069 98.2294 855.915 97.6312 853.415 97.6312C849.976 97.6312 847.189 98.764 847.189 100.16C847.189 101.556 849.976 102.689 853.415 102.689C856.854 102.689 859.642 101.556 859.642 100.16C859.642 99.8779 859.526 99.6077 859.318 99.354L865.099 98.2696C868.836 101.513 873.977 104.501 880.396 107.109C880.903 107.314 881.417 107.517 881.936 107.717L877.394 109.685C876.3 109.297 874.87 109.062 873.303 109.062C869.864 109.062 867.076 110.193 867.076 111.591C867.076 112.988 869.864 114.119 873.303 114.119C876.742 114.119 879.53 112.988 879.53 111.591C879.53 110.931 878.907 110.33 877.889 109.881L882.44 107.909C890.158 110.825 899.109 113.027 908.803 114.431L906.292 117.325C905.748 117.262 905.173 117.227 904.578 117.227C901.14 117.227 898.352 118.36 898.352 119.756C898.352 121.152 901.14 122.285 904.578 122.285C908.017 122.285 910.805 121.152 910.805 119.756C910.805 118.7 909.211 117.795 906.946 117.417L909.456 114.525C917.449 115.65 925.936 116.235 934.646 116.235C935.363 116.235 936.078 116.232 936.793 116.223L937.078 119.783C934.059 119.958 931.74 121.012 931.74 122.286C931.74 123.682 934.527 124.815 937.966 124.815C941.405 124.815 944.193 123.682 944.193 122.286C944.193 120.889 941.405 119.757 937.966 119.757C937.9 119.757 937.835 119.759 937.769 119.76L937.485 116.215C941.022 116.163 944.514 116.011 947.947 115.769L944.746 144.956L1059.87 135.251V84.1143H1079.86V110.439H1115.84V120.943H1117.79V110.439H1121.82V129.845H1123.77V110.439H1128.4V124.428H1130.35V110.439H1136.45V46.6493H1154.99V71.788H1157.92V76.1717H1160.85V79.2184H1181.7V76.1717H1184.63V71.788H1195.24V73.6689H1200.36V71.788H1202.18V76.8172H1209.49V71.788H1211.58L1216.14 58.1083H1232.74V64.6289H1233.83V58.1083H1240.06V66.0685H1241.15V58.1083H1250.15V56.2592H1247.86V35.8251H1266.4L1268.57 29.9287H1284.31V19.2945H1301.52V11.1997H1319.09L1319.09 0.667053ZM881.514 85.6353L865.505 85.8465V76.4809H868.465V75.5841H865.505V74.8843L884.65 77.747C882.61 80.0362 881.497 82.5036 881.497 85.0748C881.495 85.2624 881.502 85.4489 881.514 85.6353ZM932.576 63.5044C926.307 63.6023 920.313 64.144 914.778 65.0526L907.126 57.484V56.9885H914.444V62.6359H921.762V56.9885H932.055L932.576 63.5044ZM951.354 84.7137L938.807 84.8789C938.77 84.7444 938.693 84.6146 938.584 84.4919L951.649 82.0422L951.354 84.7137ZM899.076 56.9885V57.4616C898.608 57.5619 898.13 57.654 897.666 57.7578L896.64 56.9896L899.076 56.9885ZM899.076 58.4103V58.8127L898.657 58.4989C898.795 58.467 898.938 58.441 899.076 58.4103ZM899.076 59.9915V62.6359H902.61L907.728 66.4674C903.436 67.4952 899.53 68.7601 896.118 70.2186L880.417 64.2431C880.892 64.0389 881.376 63.8372 881.867 63.6377C886.584 61.7214 891.823 60.0942 897.452 58.7761L899.076 59.9915ZM908.223 66.8379L929.924 83.0841L896.876 70.5065C900.211 69.0811 904.03 67.8444 908.223 66.8379ZM904.184 62.6359H907.126V58.2239L914.138 65.1588C912.35 65.4644 910.612 65.8078 908.929 66.1877L904.184 62.6359ZM935.996 56.9885V62.6359H953.754L951.992 64.6667C946.554 63.9021 940.72 63.4855 934.648 63.4855C934.188 63.4855 933.727 63.4879 933.267 63.4926L932.748 56.9885H935.996ZM953.672 63.5764L953.527 64.9063C953.23 64.8602 952.945 64.8036 952.646 64.7599L953.672 63.5764ZM952.17 77.275L940.208 82.4599L952.62 73.1686L952.17 77.275ZM952.123 77.7069L951.682 81.7272L938.292 84.237C938.215 84.1828 938.133 84.1308 938.044 84.0801L938.905 83.4346L952.123 77.7069ZM938.444 85.7923L951.03 87.6743L950.667 90.9795L937.929 86.1321C938.132 86.027 938.306 85.9138 938.444 85.7923ZM938.683 85.5291C938.764 85.4111 938.814 85.2872 938.83 85.1609L951.324 84.9958L951.062 87.3806L938.683 85.5291ZM884.807 48.1302L868.37 35.8251H884.807V48.1302ZM884.807 49.309V54.9093H882.245V56.9896H895.066L896.461 58.0339C890.659 59.3909 885.261 61.0677 880.399 63.0407C879.892 63.2472 879.394 63.456 878.903 63.6661L874.135 61.8512C875.043 61.4123 875.59 60.8459 875.59 60.2276C875.59 58.8304 872.802 57.6988 869.363 57.6988C867.897 57.6988 866.568 57.9136 865.504 58.2569V52.3156H868.463V51.4189H865.504V40.2336H868.463V39.3368H865.504V35.824H866.796L884.807 49.309ZM865.504 64.3989H868.463V63.5021H865.504V62.1993C866.568 62.5439 867.897 62.7575 869.363 62.7575C871.031 62.7575 872.544 62.4908 873.662 62.0577L878.428 63.8714C873.133 66.183 868.803 68.7684 865.504 71.5449V64.3989ZM865.504 73.6323C868.869 70.2764 873.716 67.1671 879.943 64.4472L895.647 70.4239C891.018 72.4559 887.337 74.8477 884.891 77.4839L865.504 74.5846V73.6323ZM896.405 70.7118L930.971 83.8665L931.256 84.0801C931.102 84.1674 930.968 84.2594 930.854 84.3574L885.866 77.6302C888.262 75.0472 891.869 72.7025 896.405 70.7118ZM909.423 66.5582C911.073 66.1854 912.778 65.8479 914.532 65.5493L932.743 83.5609C932.584 83.5939 932.429 83.6317 932.283 83.6718L909.423 66.5582ZM915.172 65.4419C920.595 64.551 926.468 64.0213 932.611 63.9245L934.169 83.385C933.9 83.398 933.638 83.4204 933.386 83.4523L915.172 65.4419ZM933.302 63.9151C933.75 63.9103 934.199 63.908 934.648 63.908C940.597 63.908 946.317 64.3163 951.646 65.0656L935.71 83.4299C935.436 83.4004 935.151 83.3827 934.859 83.3768L933.302 63.9151ZM952.298 65.1588C952.699 65.2178 953.08 65.2909 953.476 65.3535L952.761 71.8848L937.014 83.673C936.81 83.6163 936.591 83.5668 936.362 83.5243L952.298 65.1588ZM937.456 86.3362L950.627 91.3477L949.721 99.61L936.555 86.5888C936.882 86.5203 937.186 86.4354 937.456 86.3362ZM885.624 77.8933L930.615 84.6217C930.534 84.7397 930.484 84.8624 930.468 84.9899L882.551 85.6223C882.539 85.4406 882.533 85.2577 882.533 85.0748C882.533 82.5543 883.625 80.1365 885.624 77.8933ZM930.491 85.2707C930.529 85.4052 930.605 85.535 930.714 85.6577L887.19 93.8186C884.466 91.389 882.844 88.7151 882.577 85.9032L930.491 85.2707ZM931.007 85.9126C931.159 86.0212 931.339 86.1227 931.544 86.2159L898.779 100.417C894.11 98.6153 890.262 96.4666 887.483 94.0735L931.007 85.9126ZM932.049 86.407C932.32 86.4944 932.617 86.5687 932.936 86.6265L917 104.991C910.37 104.018 904.362 102.515 899.286 100.608L932.049 86.407ZM933.589 86.7198C933.862 86.7481 934.147 86.7669 934.44 86.7728L935.998 106.235C935.55 106.239 935.101 106.242 934.65 106.242C928.701 106.242 922.983 105.833 917.652 105.085L933.589 86.7198ZM935.131 86.7634C935.4 86.7504 935.662 86.728 935.914 86.6961L949.647 100.278L949.086 105.401C945.122 105.866 940.976 106.158 936.687 106.224L935.131 86.7634ZM861.65 91.4102H873.152V88.9558H870.573V88.0555H865.504V86.1262L881.54 85.915C881.812 88.7848 883.468 91.5141 886.249 93.9933L866.696 97.6583C864.454 95.6653 862.775 93.5696 861.65 91.4102ZM881.867 106.512C875.623 103.976 870.622 101.07 866.987 97.9156L886.541 94.2493C889.376 96.6919 893.305 98.8855 898.071 100.724L883.357 107.101C882.856 106.907 882.358 106.711 881.867 106.512ZM883.861 107.293L898.576 100.915C903.756 102.862 909.888 104.396 916.653 105.389L909.496 113.636C900.071 112.27 891.368 110.129 883.861 107.293ZM934.648 115.391C926.178 115.391 917.924 114.821 910.15 113.729L917.307 105.482C922.744 106.246 928.579 106.663 934.648 106.663C935.111 106.663 935.57 106.661 936.029 106.656L936.728 115.38C936.037 115.388 935.344 115.391 934.648 115.391ZM937.42 115.371L936.722 106.645C940.979 106.578 945.093 106.292 949.038 105.842L948.045 114.903C944.56 115.158 941.013 115.318 937.42 115.371Z"
      fill="#38415C" />
  </g>
</svg>